<svg preserveAspectRatio="none" width="100%" height="100%" overflow="visible" style="display: block;" viewBox="0 0 18 18" fill="none" xmlns="http://www.w3.org/2000/svg">
<g id="fluent:table-cursor-20-filled">
<path id="Vector" d="M12.204 8.4915L14.5332 10.8H15.3V7.2H11.7V8.1765C11.8854 8.2413 12.0591 8.3475 12.204 8.4915ZM9.9 15.3L9.9027 11.7H7.2V15.3H9.9ZM10.7352 8.2044L10.8 8.1792V7.2H7.2V10.8H9.9036V9.45C9.90378 9.18348 9.98284 8.92297 10.1308 8.70131C10.2788 8.47964 10.4891 8.30675 10.7352 8.2044ZM6.3 10.8V7.2H2.7V10.8H6.3ZM2.7 11.7H6.3V15.3H4.95C4.35326 15.3 3.78097 15.0629 3.35901 14.641C2.93705 14.219 2.7 13.6467 2.7 13.05V11.7ZM11.7 6.3H15.3V4.95C15.3 4.35326 15.0629 3.78097 14.641 3.35901C14.219 2.93705 13.6467 2.7 13.05 2.7H11.7V6.3ZM10.8 2.7V6.3H7.2V2.7H10.8ZM6.3 2.7V6.3H2.7V4.95C2.7 4.35326 2.93705 3.78097 3.35901 3.35901C3.78097 2.93705 4.35326 2.7 4.95 2.7H6.3ZM11.5704 9.1314C11.5073 9.06887 11.4271 9.0264 11.34 9.00935C11.2528 8.99231 11.1625 9.00144 11.0805 9.03561C10.9985 9.06977 10.9285 9.12743 10.8792 9.20134C10.8299 9.27524 10.8036 9.36207 10.8036 9.4509L10.8 16.6491C10.7998 16.7436 10.8294 16.8358 10.8845 16.9126C10.9397 16.9893 11.0176 17.0468 11.1073 17.0768C11.1969 17.1067 11.2937 17.1077 11.384 17.0796C11.4742 17.0515 11.5533 16.9956 11.61 16.92L13.4046 14.5386L16.5519 15.237C16.6473 15.2583 16.747 15.248 16.8359 15.2076C16.9249 15.1672 16.9983 15.0989 17.0451 15.0132C17.0918 14.9274 17.1094 14.8287 17.0951 14.732C17.0808 14.6354 17.0355 14.546 16.9659 14.4774L11.5704 9.1314Z" fill="var(--fill-0, #6F7681)"/>
</g>
</svg>
