<svg preserveAspectRatio="none" width="100%" height="100%" overflow="visible" style="display: block;" viewBox="0 0 15 17" fill="none" xmlns="http://www.w3.org/2000/svg">
<g id="Group">
<g id="Vector">
</g>
<path id="Vector_2" fill-rule="evenodd" clip-rule="evenodd" d="M6 0.75C6 0.551088 5.92098 0.360322 5.78033 0.21967C5.63968 0.0790176 5.44891 0 5.25 0C5.05109 0 4.86032 0.0790176 4.71967 0.21967C4.57902 0.360322 4.5 0.551088 4.5 0.75V2.25C4.5 2.44891 4.57902 2.63968 4.71967 2.78033C4.86032 2.92098 5.05109 3 5.25 3C5.44891 3 5.63968 2.92098 5.78033 2.78033C5.92098 2.63968 6 2.44891 6 2.25V0.75ZM2.598 1.5375C2.52882 1.46587 2.44606 1.40873 2.35455 1.36942C2.26305 1.33012 2.16464 1.30943 2.06505 1.30856C1.96547 1.3077 1.86671 1.32667 1.77453 1.36438C1.68236 1.40209 1.59862 1.45778 1.5282 1.5282C1.45778 1.59862 1.40209 1.68236 1.36438 1.77453C1.32667 1.86671 1.3077 1.96547 1.30856 2.06505C1.30943 2.16464 1.33012 2.26305 1.36942 2.35455C1.40873 2.44606 1.46587 2.52882 1.5375 2.598L2.598 3.66C2.66773 3.72973 2.75052 3.78505 2.84162 3.82278C2.93273 3.86052 3.03038 3.87995 3.129 3.87995C3.22762 3.87995 3.32527 3.86052 3.41638 3.82278C3.50748 3.78505 3.59027 3.72973 3.66 3.66C3.72973 3.59027 3.78505 3.50748 3.82278 3.41638C3.86052 3.32527 3.87995 3.22762 3.87995 3.129C3.87995 3.03038 3.86052 2.93273 3.82278 2.84162C3.78505 2.75052 3.72973 2.66773 3.66 2.598L2.598 1.5375ZM5.84325 4.6575C5.10975 4.413 4.413 5.10975 4.65675 5.8425L7.3065 13.791C7.57425 14.595 8.6865 14.6595 9.04575 13.8915L10.587 10.587L13.8915 9.04575C14.6595 8.68725 14.595 7.57425 13.791 7.3065L5.84325 4.6575ZM8.9625 1.5375C9.1031 1.67815 9.18209 1.86888 9.18209 2.06775C9.18209 2.26662 9.1031 2.45735 8.9625 2.598L7.902 3.66C7.83232 3.72968 7.74959 3.78496 7.65855 3.82267C7.5675 3.86038 7.46992 3.87979 7.37137 3.87979C7.27283 3.87979 7.17525 3.86038 7.0842 3.82267C6.99316 3.78496 6.91043 3.72968 6.84075 3.66C6.77107 3.59032 6.71579 3.50759 6.67808 3.41655C6.64037 3.3255 6.62096 3.22792 6.62096 3.12938C6.62096 3.03083 6.64037 2.93325 6.67808 2.8422C6.71579 2.75116 6.77107 2.66843 6.84075 2.59875L7.902 1.53825C8.04265 1.39765 8.23338 1.31866 8.43225 1.31866C8.63112 1.31866 8.82185 1.3969 8.9625 1.5375ZM0 5.25C0 5.05109 0.0790176 4.86032 0.21967 4.71967C0.360322 4.57902 0.551088 4.5 0.75 4.5H2.25C2.44891 4.5 2.63968 4.57902 2.78033 4.71967C2.92098 4.86032 3 5.05109 3 5.25C3 5.44891 2.92098 5.63968 2.78033 5.78033C2.63968 5.92098 2.44891 6 2.25 6H0.75C0.551088 6 0.360322 5.92098 0.21967 5.78033C0.0790176 5.63968 0 5.44891 0 5.25ZM3.65925 7.902C3.72893 7.83232 3.78421 7.74959 3.82192 7.65855C3.85963 7.5675 3.87904 7.46992 3.87904 7.37137C3.87904 7.27283 3.85963 7.17525 3.82192 7.0842C3.78421 6.99316 3.72893 6.91043 3.65925 6.84075C3.58957 6.77107 3.50684 6.71579 3.4158 6.67808C3.32475 6.64037 3.22717 6.62096 3.12863 6.62096C3.03008 6.62096 2.9325 6.64037 2.84145 6.67808C2.75041 6.71579 2.66768 6.77107 2.598 6.84075L1.5375 7.902C1.46587 7.97119 1.40873 8.05394 1.36942 8.14545C1.33012 8.23695 1.30943 8.33536 1.30856 8.43495C1.3077 8.53453 1.32667 8.63329 1.36438 8.72547C1.40209 8.81764 1.45778 8.90138 1.5282 8.9718C1.59862 9.04222 1.68236 9.09791 1.77453 9.13562C1.86671 9.17333 1.96547 9.1923 2.06505 9.19144C2.16464 9.19057 2.26305 9.16988 2.35455 9.13058C2.44606 9.09127 2.52882 9.03413 2.598 8.9625L3.65925 7.902Z" fill="var(--fill-0, #6F7681)"/>
</g>
</svg>
