<svg preserveAspectRatio="none" width="100%" height="100%" overflow="visible" style="display: block;" viewBox="0 0 107 9" fill="none" xmlns="http://www.w3.org/2000/svg">
<g id="Group 7">
<path id="Vector" d="M6.24525 3.85714V-4.56816e-07" stroke="var(--stroke-0, #545454)" stroke-miterlimit="10"/>
<path id="Vector_2" d="M11.49 3.85714V-9.13588e-07" stroke="var(--stroke-0, #545454)" stroke-miterlimit="10"/>
<path id="Vector_3" d="M16.7347 3.85714V-1.37036e-06" stroke="var(--stroke-0, #545454)" stroke-miterlimit="10"/>
<path id="Vector_4" d="M21.9797 3.85714V-1.82715e-06" stroke="var(--stroke-0, #545454)" stroke-miterlimit="10"/>
<path id="Vector_5" d="M27.2244 6.42857V-2.28392e-06" stroke="var(--stroke-0, #545454)" stroke-miterlimit="10"/>
<path id="Vector_6" d="M32.4693 3.85714V-2.74072e-06" stroke="var(--stroke-0, #545454)" stroke-miterlimit="10"/>
<path id="Vector_7" d="M37.7141 3.85714V-3.19749e-06" stroke="var(--stroke-0, #545454)" stroke-miterlimit="10"/>
<path id="Vector_8" d="M42.959 3.85714V-3.65428e-06" stroke="var(--stroke-0, #545454)" stroke-miterlimit="10"/>
<path id="Vector_9" d="M48.2039 3.85714V-4.11106e-06" stroke="var(--stroke-0, #545454)" stroke-miterlimit="10"/>
<path id="Vector_10" d="M58.6938 3.85714V-5.02465e-06" stroke="var(--stroke-0, #545454)" stroke-miterlimit="10"/>
<path id="Vector_11" d="M63.9388 3.85714V-5.48144e-06" stroke="var(--stroke-0, #545454)" stroke-miterlimit="10"/>
<path id="Vector_12" d="M69.1832 3.85714V-5.93819e-06" stroke="var(--stroke-0, #545454)" stroke-miterlimit="10"/>
<path id="Vector_13" d="M74.4283 3.85714V-6.39499e-06" stroke="var(--stroke-0, #545454)" stroke-miterlimit="10"/>
<path id="Vector_14" d="M79.6732 6.42856V-6.85177e-06" stroke="var(--stroke-0, #545454)" stroke-miterlimit="10"/>
<path id="Vector_15" d="M84.918 3.85713V-7.30856e-06" stroke="var(--stroke-0, #545454)" stroke-miterlimit="10"/>
<path id="Vector_16" d="M90.1632 3.85713V-7.76537e-06" stroke="var(--stroke-0, #545454)" stroke-miterlimit="10"/>
<path id="Vector_17" d="M95.4078 3.85713V-8.22213e-06" stroke="var(--stroke-0, #545454)" stroke-miterlimit="10"/>
<path id="Vector_18" d="M100.653 3.85713V-8.6789e-06" stroke="var(--stroke-0, #545454)" stroke-miterlimit="10"/>
<path id="Vector_19" d="M1 9.00001V9.17939e-06" stroke="var(--stroke-0, #545454)" stroke-miterlimit="10"/>
<path id="Vector_20" d="M53.4487 8.99999V-4.56784e-06" stroke="var(--stroke-0, #545454)" stroke-miterlimit="10"/>
<path id="Vector_21" d="M105.897 8.99999V-9.13568e-06" stroke="var(--stroke-0, #545454)" stroke-miterlimit="10"/>
</g>
</svg>
