<svg preserveAspectRatio="none" width="100%" height="100%" overflow="visible" style="display: block;" viewBox="0 0 1410 685" fill="none" xmlns="http://www.w3.org/2000/svg">
<g id="horizontal lines">
<line id="Line 1" x1="4.37114e-08" y1="54.5" x2="1410" y2="54.5001" stroke="var(--stroke-0, #D6D5D4)" stroke-opacity="0.1"/>
<line id="Line 5" x1="4.37114e-08" y1="264.5" x2="1410" y2="264.5" stroke="var(--stroke-0, #D6D5D4)" stroke-opacity="0.1"/>
<line id="Line 9" x1="4.37114e-08" y1="474.5" x2="1410" y2="474.5" stroke="var(--stroke-0, #D6D5D4)" stroke-opacity="0.1"/>
<line id="Line 3" x1="4.37114e-08" y1="159.5" x2="1410" y2="159.5" stroke="var(--stroke-0, #D6D5D4)" stroke-opacity="0.1"/>
<line id="Line 6" x1="4.37114e-08" y1="369.5" x2="1410" y2="369.5" stroke="var(--stroke-0, #D6D5D4)" stroke-opacity="0.1"/>
<line id="Line 10" x1="4.37114e-08" y1="579.5" x2="1410" y2="579.5" stroke="var(--stroke-0, #D6D5D4)" stroke-opacity="0.1"/>
<line id="Line 13" x1="4.37114e-08" y1="684.5" x2="1410" y2="684.5" stroke="var(--stroke-0, #D6D5D4)" stroke-opacity="0.1"/>
<line id="Line 2" x1="4.37114e-08" y1="0.5" x2="1410" y2="0.500123" stroke="var(--stroke-0, #D6D5D4)" stroke-opacity="0.1"/>
<line id="Line 7" x1="4.37114e-08" y1="210.5" x2="1410" y2="210.5" stroke="var(--stroke-0, #D6D5D4)" stroke-opacity="0.1"/>
<line id="Line 11" x1="4.37114e-08" y1="420.5" x2="1410" y2="420.5" stroke="var(--stroke-0, #D6D5D4)" stroke-opacity="0.1"/>
<line id="Line 4" x1="4.37114e-08" y1="105.5" x2="1410" y2="105.5" stroke="var(--stroke-0, #D6D5D4)" stroke-opacity="0.1"/>
<line id="Line 8" x1="4.37114e-08" y1="315.5" x2="1410" y2="315.5" stroke="var(--stroke-0, #D6D5D4)" stroke-opacity="0.1"/>
<line id="Line 12" x1="4.37114e-08" y1="525.5" x2="1410" y2="525.5" stroke="var(--stroke-0, #D6D5D4)" stroke-opacity="0.1"/>
<line id="Line 14" x1="4.37114e-08" y1="630.5" x2="1410" y2="630.5" stroke="var(--stroke-0, #D6D5D4)" stroke-opacity="0.1"/>
</g>
</svg>
