<svg preserveAspectRatio="none" width="100%" height="100%" overflow="visible" style="display: block;" viewBox="0 0 107 9" fill="none" xmlns="http://www.w3.org/2000/svg">
<g id="Group 5">
<path id="Vector" d="M5.77525 3.85715V8.7204e-06" stroke="var(--stroke-0, #545454)" stroke-miterlimit="10"/>
<path id="Vector_2" d="M11.0501 3.85715V8.26144e-06" stroke="var(--stroke-0, #545454)" stroke-miterlimit="10"/>
<path id="Vector_3" d="M16.325 3.85715V7.80248e-06" stroke="var(--stroke-0, #545454)" stroke-miterlimit="10"/>
<path id="Vector_4" d="M21.6001 3.85715V7.3435e-06" stroke="var(--stroke-0, #545454)" stroke-miterlimit="10"/>
<path id="Vector_5" d="M26.8751 6.42858V6.88453e-06" stroke="var(--stroke-0, #545454)" stroke-miterlimit="10"/>
<path id="Vector_6" d="M32.1501 3.85715V6.42556e-06" stroke="var(--stroke-0, #545454)" stroke-miterlimit="10"/>
<path id="Vector_7" d="M37.425 3.85715V5.9666e-06" stroke="var(--stroke-0, #545454)" stroke-miterlimit="10"/>
<path id="Vector_8" d="M42.7002 3.85715V5.50761e-06" stroke="var(--stroke-0, #545454)" stroke-miterlimit="10"/>
<path id="Vector_9" d="M47.975 3.85715V5.04867e-06" stroke="var(--stroke-0, #545454)" stroke-miterlimit="10"/>
<path id="Vector_10" d="M58.5252 3.85715V4.13071e-06" stroke="var(--stroke-0, #545454)" stroke-miterlimit="10"/>
<path id="Vector_11" d="M63.8001 3.85715V3.67175e-06" stroke="var(--stroke-0, #545454)" stroke-miterlimit="10"/>
<path id="Vector_12" d="M69.0751 3.85714V3.21278e-06" stroke="var(--stroke-0, #545454)" stroke-miterlimit="10"/>
<path id="Vector_13" d="M74.3501 3.85714V2.75381e-06" stroke="var(--stroke-0, #545454)" stroke-miterlimit="10"/>
<path id="Vector_14" d="M79.6251 6.42857V2.29484e-06" stroke="var(--stroke-0, #545454)" stroke-miterlimit="10"/>
<path id="Vector_15" d="M84.9001 3.85714V1.83587e-06" stroke="var(--stroke-0, #545454)" stroke-miterlimit="10"/>
<path id="Vector_16" d="M90.1752 3.85714V1.37689e-06" stroke="var(--stroke-0, #545454)" stroke-miterlimit="10"/>
<path id="Vector_17" d="M95.4502 3.85714V9.17918e-07" stroke="var(--stroke-0, #545454)" stroke-miterlimit="10"/>
<path id="Vector_18" d="M100.725 3.85714V4.5897e-07" stroke="var(--stroke-0, #545454)" stroke-miterlimit="10"/>
<path id="Vector_19" d="M0.5 9.00001V1.6689e-05" stroke="var(--stroke-0, #545454)" stroke-miterlimit="10"/>
<path id="Vector_20" d="M53.25 9V4.5897e-06" stroke="var(--stroke-0, #545454)" stroke-miterlimit="10"/>
<path id="Vector_21" d="M106 9V0" stroke="var(--stroke-0, #545454)" stroke-miterlimit="10"/>
</g>
</svg>
