<svg preserveAspectRatio="none" width="100%" height="100%" overflow="visible" style="display: block;" viewBox="0 0 21 20" fill="none" xmlns="http://www.w3.org/2000/svg">
<g id="fluent:arrow-eject-20-regular">
<path id="Vector" d="M10.098 5.2C10.1446 5.1379 10.205 5.0875 10.2744 5.05279C10.3438 5.01807 10.4204 5 10.498 5C10.5756 5 10.6522 5.01807 10.7216 5.05279C10.791 5.0875 10.8514 5.1379 10.898 5.2L15.397 11.201C15.4527 11.2753 15.4866 11.3636 15.495 11.4561C15.5033 11.5486 15.4857 11.6416 15.4442 11.7246C15.4027 11.8077 15.3389 11.8775 15.2599 11.9263C15.1809 11.9751 15.0899 12.001 14.997 12.001H6.003C5.91014 12.001 5.81912 11.9751 5.74013 11.9263C5.66115 11.8775 5.59731 11.8077 5.55579 11.7246C5.51426 11.6416 5.49668 11.5486 5.50502 11.4561C5.51336 11.3636 5.54729 11.2753 5.603 11.201L10.098 5.2ZM11.698 4.6C11.098 3.8 9.898 3.8 9.298 4.6L4.802 10.602C4.062 11.591 4.767 13.002 6.002 13.002H14.997C16.233 13.002 16.938 11.59 16.197 10.602L11.698 4.6ZM4.5 15C4.36739 15 4.24021 15.0527 4.14645 15.1464C4.05268 15.2402 4 15.3674 4 15.5C4 15.6326 4.05268 15.7598 4.14645 15.8536C4.24021 15.9473 4.36739 16 4.5 16H16.5C16.6326 16 16.7598 15.9473 16.8536 15.8536C16.9473 15.7598 17 15.6326 17 15.5C17 15.3674 16.9473 15.2402 16.8536 15.1464C16.7598 15.0527 16.6326 15 16.5 15H4.5Z" fill="var(--fill-0, white)"/>
</g>
</svg>
