<svg preserveAspectRatio="none" width="100%" height="100%" overflow="visible" style="display: block;" viewBox="0 0 107 9" fill="none" xmlns="http://www.w3.org/2000/svg">
<g id="Group 8">
<path id="Vector" d="M5.77024 3.85715V8.7204e-06" stroke="var(--stroke-0, #545454)" stroke-miterlimit="10"/>
<path id="Vector_2" d="M11.0402 3.85715V8.26143e-06" stroke="var(--stroke-0, #545454)" stroke-miterlimit="10"/>
<path id="Vector_3" d="M16.3099 3.85715V7.80248e-06" stroke="var(--stroke-0, #545454)" stroke-miterlimit="10"/>
<path id="Vector_4" d="M21.5801 3.85715V7.34349e-06" stroke="var(--stroke-0, #545454)" stroke-miterlimit="10"/>
<path id="Vector_5" d="M26.85 6.42858V6.88453e-06" stroke="var(--stroke-0, #545454)" stroke-miterlimit="10"/>
<path id="Vector_6" d="M32.1199 3.85715V6.42556e-06" stroke="var(--stroke-0, #545454)" stroke-miterlimit="10"/>
<path id="Vector_7" d="M37.3898 3.85715V5.9666e-06" stroke="var(--stroke-0, #545454)" stroke-miterlimit="10"/>
<path id="Vector_8" d="M42.6599 3.85715V5.50762e-06" stroke="var(--stroke-0, #545454)" stroke-miterlimit="10"/>
<path id="Vector_9" d="M47.9297 3.85715V5.04866e-06" stroke="var(--stroke-0, #545454)" stroke-miterlimit="10"/>
<path id="Vector_10" d="M58.4699 3.85715V4.1307e-06" stroke="var(--stroke-0, #545454)" stroke-miterlimit="10"/>
<path id="Vector_11" d="M63.7398 3.85715V3.67173e-06" stroke="var(--stroke-0, #545454)" stroke-miterlimit="10"/>
<path id="Vector_12" d="M69.0095 3.85714V3.21279e-06" stroke="var(--stroke-0, #545454)" stroke-miterlimit="10"/>
<path id="Vector_13" d="M74.2796 3.85714V2.75381e-06" stroke="var(--stroke-0, #545454)" stroke-miterlimit="10"/>
<path id="Vector_14" d="M79.5496 6.42857V2.29484e-06" stroke="var(--stroke-0, #545454)" stroke-miterlimit="10"/>
<path id="Vector_15" d="M84.8195 3.85714V1.83587e-06" stroke="var(--stroke-0, #545454)" stroke-miterlimit="10"/>
<path id="Vector_16" d="M90.0898 3.85714V1.37688e-06" stroke="var(--stroke-0, #545454)" stroke-miterlimit="10"/>
<path id="Vector_17" d="M95.3596 3.85714V9.17918e-07" stroke="var(--stroke-0, #545454)" stroke-miterlimit="10"/>
<path id="Vector_18" d="M100.629 3.85714V4.58969e-07" stroke="var(--stroke-0, #545454)" stroke-miterlimit="10"/>
<path id="Vector_19" d="M0.5 9.00002V1.83588e-05" stroke="var(--stroke-0, #545454)" stroke-miterlimit="10"/>
<path id="Vector_20" d="M53.1997 9V4.5897e-06" stroke="var(--stroke-0, #545454)" stroke-miterlimit="10"/>
<path id="Vector_21" d="M105.899 9V0" stroke="var(--stroke-0, #545454)" stroke-miterlimit="10"/>
</g>
</svg>
