<svg preserveAspectRatio="none" width="100%" height="100%" overflow="visible" style="display: block;" viewBox="0 0 685 714" fill="none" xmlns="http://www.w3.org/2000/svg">
<g id="Group 1">
<line id="Line 15" x1="630.5" y1="5.05471e-08" x2="630.5" y2="714" stroke="var(--stroke-0, #D6D5D4)" stroke-opacity="0.1"/>
<line id="Line 16" x1="420.5" y1="5.05471e-08" x2="420.5" y2="714" stroke="var(--stroke-0, #D6D5D4)" stroke-opacity="0.1"/>
<line id="Line 17" x1="210.5" y1="5.05471e-08" x2="210.5" y2="714" stroke="var(--stroke-0, #D6D5D4)" stroke-opacity="0.1"/>
<line id="Line 18" x1="525.5" y1="5.05471e-08" x2="525.5" y2="714" stroke="var(--stroke-0, #D6D5D4)" stroke-opacity="0.1"/>
<line id="Line 19" x1="315.5" y1="5.05471e-08" x2="315.5" y2="714" stroke="var(--stroke-0, #D6D5D4)" stroke-opacity="0.1"/>
<line id="Line 20" x1="105.5" y1="5.05471e-08" x2="105.5" y2="714" stroke="var(--stroke-0, #D6D5D4)" stroke-opacity="0.1"/>
<line id="Line 21" x1="0.500128" y1="5.05471e-08" x2="0.500007" y2="714" stroke="var(--stroke-0, #D6D5D4)" stroke-opacity="0.1"/>
<line id="Line 22" x1="684.5" y1="5.05471e-08" x2="684.5" y2="714" stroke="var(--stroke-0, #D6D5D4)" stroke-opacity="0.1"/>
<line id="Line 23" x1="474.5" y1="5.05471e-08" x2="474.5" y2="714" stroke="var(--stroke-0, #D6D5D4)" stroke-opacity="0.1"/>
<line id="Line 24" x1="264.5" y1="5.05471e-08" x2="264.5" y2="714" stroke="var(--stroke-0, #D6D5D4)" stroke-opacity="0.1"/>
<line id="Line 25" x1="579.5" y1="5.05471e-08" x2="579.5" y2="714" stroke="var(--stroke-0, #D6D5D4)" stroke-opacity="0.1"/>
<line id="Line 26" x1="369.5" y1="5.05471e-08" x2="369.5" y2="714" stroke="var(--stroke-0, #D6D5D4)" stroke-opacity="0.1"/>
<line id="Line 27" x1="159.5" y1="5.05471e-08" x2="159.5" y2="714" stroke="var(--stroke-0, #D6D5D4)" stroke-opacity="0.1"/>
<line id="Line 28" x1="54.5001" y1="5.05471e-08" x2="54.5" y2="714" stroke="var(--stroke-0, #D6D5D4)" stroke-opacity="0.1"/>
</g>
</svg>
