<svg preserveAspectRatio="none" width="100%" height="100%" overflow="visible" style="display: block;" viewBox="0 0 482 498" fill="none" xmlns="http://www.w3.org/2000/svg">
<g id="Vector 2" filter="url(#filter0_d_227_17856)">
<path d="M6.90543 482.342C7.56835 484.178 10.287 483.703 10.287 481.75V471.094C10.287 469.159 12.7359 468.319 13.9243 469.846C14.6027 470.718 15.8532 470.889 16.7403 470.23L16.9357 470.085C18.4414 468.968 20.5773 470.043 20.5773 471.918V473.723C20.5773 476.331 24.2091 476.966 25.0947 474.513C25.4277 473.591 26.3033 472.976 27.2842 472.976H34.8419C36.2571 472.976 37.4043 471.829 37.4043 470.413V463.632C37.4043 461.056 41.1659 460.786 41.5339 463.335C41.8792 465.727 45.3408 465.698 45.6468 463.302L52.8527 406.851C53.0396 405.387 54.2855 404.29 55.7614 404.29C57.2775 404.29 58.5436 403.134 58.6815 401.624L62.3956 360.966C62.5367 359.421 63.8321 358.239 65.3832 358.239H67.1873C68.7719 358.239 70.0832 357.006 70.1815 355.425L73.0201 309.78C73.1037 308.435 74.0738 307.311 75.392 307.031L78.8141 306.306C79.8706 306.082 80.7251 305.307 81.0515 304.278L84.0665 294.768C84.4617 293.521 85.6186 292.674 86.9262 292.674H93.4483C95.0455 292.674 96.3627 293.926 96.4444 295.521L99.3815 352.923C99.4272 353.818 99.8704 354.645 100.59 355.179L103.834 357.587C104.401 358.008 104.802 358.615 104.965 359.302L117.275 411.072C117.313 411.233 117.338 411.397 117.349 411.563L122.489 487.215C122.716 490.564 127.433 491.069 128.364 487.844L129.327 484.51C129.697 483.226 130.873 482.342 132.209 482.342H134.618C136.152 482.342 137.438 481.186 137.601 479.661L160.863 262.134C161.242 258.593 166.379 258.545 166.822 262.079L172.104 304.13C172.546 307.645 177.645 307.626 178.06 304.107L201.598 104.461C202.015 100.924 207.153 100.933 207.558 104.472L211.006 134.614C211.413 138.172 216.589 138.153 216.97 134.592L217.78 127.018C218.127 123.769 222.682 123.338 223.633 126.463L226.64 136.347C226.685 136.495 226.719 136.646 226.74 136.799L227.553 142.528C228.049 146.023 233.123 145.941 233.506 142.432L237.722 103.708C238.046 100.735 242.254 100.438 242.993 103.335C243.733 106.238 247.95 105.933 248.265 102.955L257.974 11.2473C258.136 9.72128 259.423 8.56318 260.957 8.56318H263.19C264.014 8.56318 264.745 8.03754 265.008 7.25702C265.661 5.31867 268.489 5.6111 268.732 7.64205L272.869 42.2966C273.273 45.6818 278.113 45.877 278.789 42.5353L279.776 37.6481C280.476 34.1852 285.543 34.5688 285.713 38.0976L294.016 209.939L299.822 293.047C300.066 296.537 305.07 296.857 305.756 293.427L312.781 258.324C313.467 254.894 318.47 255.213 318.715 258.702L322.741 315.97C322.899 318.216 326.03 318.617 326.748 316.483C327.455 314.386 330.521 314.727 330.75 316.929L337.082 378.021C337.34 380.512 340.808 380.897 341.607 378.525C342.429 376.085 346.018 376.585 346.142 379.157L348.703 432.389L363.427 272.381L369.93 221.432C370.376 217.94 375.432 217.937 375.882 221.428L384.337 287.034C384.417 287.657 384.691 288.238 385.119 288.697L393.352 297.524C393.727 297.926 393.986 298.427 394.097 298.965C394.795 302.333 399.709 302.166 400.041 298.743L407.322 223.636C407.632 220.429 412.091 219.9 413.143 222.946L414.703 227.461C415.753 230.501 420.204 229.98 420.524 226.779L422.822 203.747C423.178 200.188 428.342 200.125 428.784 203.673L434.229 247.315C434.631 250.535 439.149 250.913 440.08 247.804L445.346 230.216C446.231 227.262 450.46 227.404 451.145 230.409L458.606 263.13C459.196 265.714 462.601 266.32 464.046 264.099L474.905 247.404" stroke="var(--stroke-0, #00FF24)" stroke-width="1.5"/>
</g>
<defs>
<filter id="filter0_d_227_17856" x="-2.38419e-07" y="-1.19209e-07" width="481.734" height="497.963" filterUnits="userSpaceOnUse" color-interpolation-filters="sRGB">
<feFlood flood-opacity="0" result="BackgroundImageFix"/>
<feColorMatrix in="SourceAlpha" type="matrix" values="0 0 0 0 0 0 0 0 0 0 0 0 0 0 0 0 0 0 127 0" result="hardAlpha"/>
<feOffset dy="1"/>
<feGaussianBlur stdDeviation="3.1"/>
<feComposite in2="hardAlpha" operator="out"/>
<feColorMatrix type="matrix" values="0 0 0 0 0 0 0 0 0 1 0 0 0 0 0.141176 0 0 0 0.6 0"/>
<feBlend mode="normal" in2="BackgroundImageFix" result="effect1_dropShadow_227_17856"/>
<feBlend mode="normal" in="SourceGraphic" in2="effect1_dropShadow_227_17856" result="shape"/>
</filter>
</defs>
</svg>
