<svg preserveAspectRatio="none" width="100%" height="100%" overflow="visible" style="display: block;" viewBox="0 0 104 9" fill="none" xmlns="http://www.w3.org/2000/svg">
<g id="Group 9">
<path id="Vector" d="M5.65028 3.85715V8.80345e-06" stroke="var(--stroke-0, #545454)" stroke-miterlimit="10"/>
<path id="Vector_2" d="M10.8003 3.85715V8.3401e-06" stroke="var(--stroke-0, #545454)" stroke-miterlimit="10"/>
<path id="Vector_3" d="M15.9499 3.85715V7.8768e-06" stroke="var(--stroke-0, #545454)" stroke-miterlimit="10"/>
<path id="Vector_4" d="M21.1002 3.85715V7.41344e-06" stroke="var(--stroke-0, #545454)" stroke-miterlimit="10"/>
<path id="Vector_5" d="M26.2502 6.42858V6.95009e-06" stroke="var(--stroke-0, #545454)" stroke-miterlimit="10"/>
<path id="Vector_6" d="M31.4 3.85715V6.48677e-06" stroke="var(--stroke-0, #545454)" stroke-miterlimit="10"/>
<path id="Vector_7" d="M36.5501 3.85715V6.02342e-06" stroke="var(--stroke-0, #545454)" stroke-miterlimit="10"/>
<path id="Vector_8" d="M41.7001 3.85715V5.56008e-06" stroke="var(--stroke-0, #545454)" stroke-miterlimit="10"/>
<path id="Vector_9" d="M46.85 3.85715V5.09675e-06" stroke="var(--stroke-0, #545454)" stroke-miterlimit="10"/>
<path id="Vector_10" d="M57.1503 3.85715V4.17004e-06" stroke="var(--stroke-0, #545454)" stroke-miterlimit="10"/>
<path id="Vector_11" d="M62.3003 3.85715V3.7067e-06" stroke="var(--stroke-0, #545454)" stroke-miterlimit="10"/>
<path id="Vector_12" d="M67.4499 3.85714V3.24339e-06" stroke="var(--stroke-0, #545454)" stroke-miterlimit="10"/>
<path id="Vector_13" d="M72.6002 3.85714V2.78003e-06" stroke="var(--stroke-0, #545454)" stroke-miterlimit="10"/>
<path id="Vector_14" d="M77.7502 6.42857V2.31668e-06" stroke="var(--stroke-0, #545454)" stroke-miterlimit="10"/>
<path id="Vector_15" d="M82.9 3.85714V1.85336e-06" stroke="var(--stroke-0, #545454)" stroke-miterlimit="10"/>
<path id="Vector_16" d="M88.0503 3.85714V1.38999e-06" stroke="var(--stroke-0, #545454)" stroke-miterlimit="10"/>
<path id="Vector_17" d="M93.2001 3.85714V9.2667e-07" stroke="var(--stroke-0, #545454)" stroke-miterlimit="10"/>
<path id="Vector_18" d="M98.35 3.85714V4.63346e-07" stroke="var(--stroke-0, #545454)" stroke-miterlimit="10"/>
<path id="Vector_19" d="M0.5 9.00002V1.81839e-05" stroke="var(--stroke-0, #545454)" stroke-miterlimit="10"/>
<path id="Vector_20" d="M52 9V4.63341e-06" stroke="var(--stroke-0, #545454)" stroke-miterlimit="10"/>
<path id="Vector_21" d="M103.5 9V0" stroke="var(--stroke-0, #545454)" stroke-miterlimit="10"/>
</g>
</svg>
