<svg preserveAspectRatio="none" width="100%" height="100%" overflow="visible" style="display: block;" viewBox="0 0 108 9" fill="none" xmlns="http://www.w3.org/2000/svg">
<g id="Group 9">
<path id="Vector" d="M5.82048 3.85715V8.80345e-06" stroke="var(--stroke-0, #545454)" stroke-miterlimit="10"/>
<path id="Vector_2" d="M11.1406 3.85715V8.34011e-06" stroke="var(--stroke-0, #545454)" stroke-miterlimit="10"/>
<path id="Vector_3" d="M16.4605 3.85715V7.87679e-06" stroke="var(--stroke-0, #545454)" stroke-miterlimit="10"/>
<path id="Vector_4" d="M21.7808 3.85715V7.41343e-06" stroke="var(--stroke-0, #545454)" stroke-miterlimit="10"/>
<path id="Vector_5" d="M27.1009 6.42858V6.9501e-06" stroke="var(--stroke-0, #545454)" stroke-miterlimit="10"/>
<path id="Vector_6" d="M32.4211 3.85715V6.48675e-06" stroke="var(--stroke-0, #545454)" stroke-miterlimit="10"/>
<path id="Vector_7" d="M37.7411 3.85715V6.02343e-06" stroke="var(--stroke-0, #545454)" stroke-miterlimit="10"/>
<path id="Vector_8" d="M43.0614 3.85715V5.56008e-06" stroke="var(--stroke-0, #545454)" stroke-miterlimit="10"/>
<path id="Vector_9" d="M48.3814 3.85715V5.09675e-06" stroke="var(--stroke-0, #545454)" stroke-miterlimit="10"/>
<path id="Vector_10" d="M59.022 3.85715V4.17004e-06" stroke="var(--stroke-0, #545454)" stroke-miterlimit="10"/>
<path id="Vector_11" d="M64.3421 3.85715V3.70671e-06" stroke="var(--stroke-0, #545454)" stroke-miterlimit="10"/>
<path id="Vector_12" d="M69.662 3.85714V3.24338e-06" stroke="var(--stroke-0, #545454)" stroke-miterlimit="10"/>
<path id="Vector_13" d="M74.9822 3.85714V2.78004e-06" stroke="var(--stroke-0, #545454)" stroke-miterlimit="10"/>
<path id="Vector_14" d="M80.3024 6.42857V2.31669e-06" stroke="var(--stroke-0, #545454)" stroke-miterlimit="10"/>
<path id="Vector_15" d="M85.6226 3.85714V1.85335e-06" stroke="var(--stroke-0, #545454)" stroke-miterlimit="10"/>
<path id="Vector_16" d="M90.943 3.85714V1.38999e-06" stroke="var(--stroke-0, #545454)" stroke-miterlimit="10"/>
<path id="Vector_17" d="M96.263 3.85714V9.26658e-07" stroke="var(--stroke-0, #545454)" stroke-miterlimit="10"/>
<path id="Vector_18" d="M101.583 3.85714V4.63345e-07" stroke="var(--stroke-0, #545454)" stroke-miterlimit="10"/>
<path id="Vector_19" d="M0.5 9.00002V1.84462e-05" stroke="var(--stroke-0, #545454)" stroke-miterlimit="10"/>
<path id="Vector_20" d="M53.7016 9V4.63341e-06" stroke="var(--stroke-0, #545454)" stroke-miterlimit="10"/>
<path id="Vector_21" d="M106.903 9V0" stroke="var(--stroke-0, #545454)" stroke-miterlimit="10"/>
</g>
</svg>
