<svg preserveAspectRatio="none" width="100%" height="100%" overflow="visible" style="display: block;" viewBox="0 0 631 714" fill="none" xmlns="http://www.w3.org/2000/svg">
<g id="Group 2">
<line id="Line 15" x1="576.5" y1="5.05471e-08" x2="576.5" y2="714" stroke="var(--stroke-0, #D6D5D4)" stroke-opacity="0.1"/>
<line id="Line 16" x1="366.5" y1="5.05471e-08" x2="366.5" y2="714" stroke="var(--stroke-0, #D6D5D4)" stroke-opacity="0.1"/>
<line id="Line 17" x1="156.5" y1="5.05471e-08" x2="156.5" y2="714" stroke="var(--stroke-0, #D6D5D4)" stroke-opacity="0.1"/>
<line id="Line 18" x1="471.5" y1="5.05471e-08" x2="471.5" y2="714" stroke="var(--stroke-0, #D6D5D4)" stroke-opacity="0.1"/>
<line id="Line 19" x1="261.5" y1="5.05471e-08" x2="261.5" y2="714" stroke="var(--stroke-0, #D6D5D4)" stroke-opacity="0.1"/>
<line id="Line 20" x1="51.5001" y1="5.05471e-08" x2="51.5" y2="714" stroke="var(--stroke-0, #D6D5D4)" stroke-opacity="0.1"/>
<line id="Line 22" x1="630.5" y1="5.05471e-08" x2="630.5" y2="714" stroke="var(--stroke-0, #D6D5D4)" stroke-opacity="0.1"/>
<line id="Line 23" x1="420.5" y1="5.05471e-08" x2="420.5" y2="714" stroke="var(--stroke-0, #D6D5D4)" stroke-opacity="0.1"/>
<line id="Line 24" x1="210.5" y1="5.05471e-08" x2="210.5" y2="714" stroke="var(--stroke-0, #D6D5D4)" stroke-opacity="0.1"/>
<line id="Line 25" x1="525.5" y1="5.05471e-08" x2="525.5" y2="714" stroke="var(--stroke-0, #D6D5D4)" stroke-opacity="0.1"/>
<line id="Line 26" x1="315.5" y1="5.05471e-08" x2="315.5" y2="714" stroke="var(--stroke-0, #D6D5D4)" stroke-opacity="0.1"/>
<line id="Line 27" x1="105.5" y1="5.05471e-08" x2="105.5" y2="714" stroke="var(--stroke-0, #D6D5D4)" stroke-opacity="0.1"/>
<line id="Line 28" x1="0.500129" y1="5.05471e-08" x2="0.500008" y2="714" stroke="var(--stroke-0, #D6D5D4)" stroke-opacity="0.1"/>
</g>
</svg>
