<svg width="89" height="72" viewBox="0 0 89 72" fill="none" xmlns="http://www.w3.org/2000/svg">
<mask id="path-1-outside-1_981_32741" maskUnits="userSpaceOnUse" x="3" y="2" width="86" height="67" fill="black">
<rect fill="white" x="3" y="2" width="86" height="67"/>
<path d="M23.0057 12.4545H38.733L45.1875 38.8182H45.733L60.9148 12.4545H76.642L68.9148 59H56.5511L61.0057 32.0909H60.642L45.9148 58.6364H38.4602L32.5511 31.9091H32.1875L27.642 59H15.2784L23.0057 12.4545Z"/>
</mask>
<path d="M23.0057 12.4545H38.733L45.1875 38.8182H45.733L60.9148 12.4545H76.642L68.9148 59H56.5511L61.0057 32.0909H60.642L45.9148 58.6364H38.4602L32.5511 31.9091H32.1875L27.642 59H15.2784L23.0057 12.4545Z" fill="url(#paint0_linear_981_32741)"/>
<path d="M23.0057 12.4545V2.45454H14.529L13.1407 10.8168L23.0057 12.4545ZM38.733 12.4545L48.4461 10.0765L46.58 2.45454H38.733V12.4545ZM45.1875 38.8182L35.4744 41.1962L37.3404 48.8182H45.1875V38.8182ZM45.733 38.8182V48.8182H51.5139L54.3988 43.8085L45.733 38.8182ZM60.9148 12.4545V2.45454H55.1338L52.2489 7.46422L60.9148 12.4545ZM76.642 12.4545L86.507 14.0923L88.4391 2.45454H76.642V12.4545ZM68.9148 59V69H77.3915L78.7798 60.6377L68.9148 59ZM56.5511 59L46.6854 57.3668L44.7596 69H56.5511V59ZM61.0057 32.0909L70.8714 33.7241L72.7972 22.0909H61.0057V32.0909ZM60.642 32.0909V22.0909H54.7541L51.8977 27.2396L60.642 32.0909ZM45.9148 58.6364V68.6364H51.8027L54.6592 63.4877L45.9148 58.6364ZM38.4602 58.6364L28.696 60.7951L30.4296 68.6364H38.4602V58.6364ZM32.5511 31.9091L42.3153 29.7503L40.5817 21.9091H32.5511V31.9091ZM32.1875 31.9091V21.9091H23.7256L22.3254 30.2544L32.1875 31.9091ZM27.642 59V69H36.104L37.5042 60.6547L27.642 59ZM15.2784 59L5.41343 57.3623L3.48138 69H15.2784V59ZM23.0057 12.4545V22.4545H38.733V12.4545V2.45454H23.0057V12.4545ZM38.733 12.4545L29.0198 14.8326L35.4744 41.1962L45.1875 38.8182L54.9006 36.4401L48.4461 10.0765L38.733 12.4545ZM45.1875 38.8182V48.8182H45.733V38.8182V28.8182H45.1875V38.8182ZM45.733 38.8182L54.3988 43.8085L69.5806 17.4449L60.9148 12.4545L52.2489 7.46422L37.0671 33.8279L45.733 38.8182ZM60.9148 12.4545V22.4545H76.642V12.4545V2.45454H60.9148V12.4545ZM76.642 12.4545L66.7771 10.8168L59.0498 57.3623L68.9148 59L78.7798 60.6377L86.507 14.0923L76.642 12.4545ZM68.9148 59V49H56.5511V59V69H68.9148V59ZM56.5511 59L66.4169 60.6332L70.8714 33.7241L61.0057 32.0909L51.1399 30.4577L46.6854 57.3668L56.5511 59ZM61.0057 32.0909V22.0909H60.642V32.0909V42.0909H61.0057V32.0909ZM60.642 32.0909L51.8977 27.2396L37.1704 53.785L45.9148 58.6364L54.6592 63.4877L69.3864 36.9423L60.642 32.0909ZM45.9148 58.6364V48.6364H38.4602V58.6364V68.6364H45.9148V58.6364ZM38.4602 58.6364L48.2244 56.4776L42.3153 29.7503L32.5511 31.9091L22.7869 34.0678L28.696 60.7951L38.4602 58.6364ZM32.5511 31.9091V21.9091H32.1875V31.9091V41.9091H32.5511V31.9091ZM32.1875 31.9091L22.3254 30.2544L17.7799 57.3453L27.642 59L37.5042 60.6547L42.0496 33.5638L32.1875 31.9091ZM27.642 59V49H15.2784V59V69H27.642V59ZM15.2784 59L25.1434 60.6377L32.8707 14.0923L23.0057 12.4545L13.1407 10.8168L5.41343 57.3623L15.2784 59Z" fill="url(#paint1_linear_981_32741)" mask="url(#path-1-outside-1_981_32741)"/>
<defs>
<linearGradient id="paint0_linear_981_32741" x1="45" y1="4" x2="45" y2="68" gradientUnits="userSpaceOnUse">
<stop stop-color="white"/>
<stop offset="1" stop-color="#5EFF75"/>
</linearGradient>
<linearGradient id="paint1_linear_981_32741" x1="45" y1="4" x2="45" y2="68" gradientUnits="userSpaceOnUse">
<stop stop-color="#00FF4C"/>
<stop offset="0.543269"/>
<stop offset="1" stop-color="#00FF4C"/>
</linearGradient>
</defs>
</svg>
